<?xml version="1.0" standalone="no"?>
<!DOCTYPE svg PUBLIC "-//W3C//DTD SVG 20010904//EN"
 "http://www.w3.org/TR/2001/REC-SVG-20010904/DTD/svg10.dtd">
<svg version="1.0" xmlns="http://www.w3.org/2000/svg"
 width="1600.000000pt" height="1600.000000pt" viewBox="0 0 1600.000000 1600.000000"
 preserveAspectRatio="xMidYMid meet">

<g transform="translate(0.000000,1600.000000) scale(0.100000,-0.100000)"
fill="#000000" stroke="none">
<path d="M8625 13982 c-1142 -418 -2519 -929 -2546 -945 -32 -19 -2395 -2220
-2440 -2273 -9 -10 -366 -622 -794 -1358 -427 -737 -788 -1356 -800 -1376 -13
-20 -28 -54 -34 -76 -15 -52 -15 -3357 -1 -3564 98 -1400 780 -2180 2050
-2344 162 -21 564 -48 613 -41 23 3 629 44 1347 90 718 47 1818 119 2445 160
1954 128 4340 284 4565 298 245 16 280 26 342 95 41 46 68 121 68 191 0 25 27
459 60 965 33 507 143 2199 245 3761 102 1562 200 3072 219 3355 30 456 33
539 25 720 -15 389 -75 692 -193 974 -295 702 -875 1143 -1736 1319 l-125 26
-1395 15 c-767 9 -1501 18 -1630 21 -211 4 -240 3 -285 -13z m1940 -501 l409
-6 -401 -223 -401 -224 -304 213 c-166 117 -314 221 -327 231 -23 17 -15 18
295 17 176 -1 503 -5 729 -8z m-1285 -430 c327 -230 596 -425 598 -432 1 -8
-190 -627 -425 -1375 l-428 -1362 -1060 -988 c-583 -543 -1304 -1215 -1603
-1493 -298 -278 -550 -509 -560 -513 -33 -14 -2606 -589 -2617 -584 -14 5
-657 1552 -653 1570 2 7 338 590 748 1296 l745 1282 1155 1080 1156 1080 1159
428 c638 236 1167 428 1175 429 8 0 283 -188 610 -418z m2805 370 c507 -125
904 -390 1132 -756 279 -448 351 -1096 208 -1871 -42 -223 -75 -356 -90 -351
-7 3 -338 272 -736 599 -398 327 -1011 829 -1361 1116 -351 288 -639 526 -642
530 -2 4 59 43 137 87 890 496 1214 675 1222 675 6 0 64 -13 130 -29z m-1077
-1713 c383 -315 944 -775 1246 -1022 439 -360 545 -452 530 -457 -11 -4 -370
-30 -799 -59 -429 -28 -1142 -75 -1584 -105 -443 -30 -807 -52 -810 -50 -6 7
703 2265 712 2265 4 0 321 -257 705 -572z m2087 -2075 c-462 -1278 -1219
-2514 -2224 -3633 -163 -181 -242 -263 -248 -256 -3 3 -48 155 -99 338 -51
183 -284 1021 -518 1861 -235 841 -427 1538 -429 1550 l-2 22 1715 116 c943
64 1745 117 1781 118 l67 1 -43 -117z m-3620 -1628 c197 -704 426 -1525 509
-1825 90 -323 148 -546 142 -548 -8 -2 -3558 1100 -3685 1144 -11 3 1 21 40
59 88 87 2632 2455 2635 2452 1 -1 163 -578 359 -1282z m3839 525 c-13 -195
-69 -1046 -124 -1890 -55 -844 -118 -1803 -140 -2130 -22 -327 -47 -719 -56
-870 -10 -151 -20 -278 -23 -282 -4 -4 -240 205 -526 464 -1237 1122 -1560
1414 -1574 1424 -12 9 12 40 141 177 978 1041 1727 2143 2248 3305 40 89 74
161 75 160 2 -2 -8 -163 -21 -358z m-10676 -2224 l121 -289 -126 -231 c-69
-127 -128 -233 -130 -235 -1 -2 -3 241 -2 540 0 305 4 535 9 524 4 -11 62
-150 128 -309z m5447 -561 c1051 -328 1916 -598 1924 -601 19 -6 -8 -34 -209
-213 -1264 -1125 -2608 -1868 -4015 -2220 -191 -48 -508 -113 -660 -136 -60
-9 -118 -19 -129 -22 -15 -4 -18 -1 -14 18 3 13 159 535 347 1159 264 874 603
1999 787 2612 4 13 10 15 32 8 15 -5 887 -278 1937 -605z m-2495 575 c0 -6
-113 -385 -251 -843 -138 -458 -361 -1199 -496 -1647 -135 -448 -248 -819
-250 -824 -3 -4 -70 142 -148 325 -856 2001 -1058 2476 -1062 2489 -3 12 199
61 1089 261 601 136 1099 247 1106 248 6 0 12 -4 12 -9z m-2395 -1335 c103
-242 379 -888 613 -1435 233 -547 427 -1003 430 -1013 4 -17 0 -18 -54 -12
-132 15 -313 48 -427 80 -759 209 -1169 787 -1248 1760 l-11 140 252 463 c139
255 253 462 255 460 2 -2 87 -201 190 -443z m8060 -756 c1257 -1139 1326
-1202 1322 -1205 -2 -3 -1029 -71 -4276 -284 -586 -38 -1066 -68 -1068 -66 -2
2 52 27 119 57 164 71 560 268 729 361 787 437 1562 1008 2274 1675 146 138
150 141 170 124 11 -10 340 -308 730 -662z"/>
</g>
</svg>
